<svg id="visual" viewBox="0 0 900 900" width="900" height="900" xmlns="http://www.w3.org/2000/svg" xmlns:xlink="http://www.w3.org/1999/xlink" version="1.1"><rect x="0" y="0" width="900" height="900" fill="#140021"></rect><path d="M0 468L129 468L129 539L257 539L257 560L386 560L386 501L514 501L514 505L643 505L643 432L771 432L771 529L900 529L900 453L900 901L900 901L771 901L771 901L643 901L643 901L514 901L514 901L386 901L386 901L257 901L257 901L129 901L129 901L0 901Z" fill="#9900ff"></path><path d="M0 633L129 633L129 680L257 680L257 696L386 696L386 589L514 589L514 588L643 588L643 579L771 579L771 649L900 649L900 560L900 901L900 901L771 901L771 901L643 901L643 901L514 901L514 901L386 901L386 901L257 901L257 901L129 901L129 901L0 901Z" fill="#7700c6"></path><path d="M0 764L129 764L129 794L257 794L257 716L386 716L386 760L514 760L514 814L643 814L643 748L771 748L771 675L900 675L900 717L900 901L900 901L771 901L771 901L643 901L643 901L514 901L514 901L386 901L386 901L257 901L257 901L129 901L129 901L0 901Z" fill="#560090"></path></svg>